<?xml version="1.0" encoding="utf-8"?>
<!-- Generator: Adobe Illustrator 21.0.0, SVG Export Plug-In . SVG Version: 6.00 Build 0)  -->
<svg version="1.1" id="Layer_1" xmlns="http://www.w3.org/2000/svg" xmlns:xlink="http://www.w3.org/1999/xlink" x="0px" y="0px"
	 viewBox="0 0 128 128" style="enable-background:new 0 0 128 128;" xml:space="preserve">
<style type="text/css">
	.st0{fill:#DF040B;}
</style>
<path class="st0" d="M62.9,122.4C51.5,110.9,40,99.5,28.5,88c-0.8-0.8-1-1.3,0-2.2c3.8-3.7,7.6-7.4,11.2-11.2c1-1.1,1.6-1.2,2.7,0
	c6.7,6.8,13.5,13.5,20.2,20.3c1.1,1.1,1.6,0.9,2.6-0.1c6.7-6.8,13.5-13.5,20.2-20.3c1-1,1.5-1.1,2.6,0c3.7,3.8,7.5,7.5,11.2,11.3
	c0.3,0.3,0.7,0.7,1,1.1c-0.3,0.3-0.5,0.6-0.8,0.9c-11.6,11.6-23.1,23.1-34.6,34.7C64,123.2,63.6,123.1,62.9,122.4z M40,53.9
	c0.8,0.9,1.3,0.9,2.2,0C49,47,55.9,40.2,62.7,33.3c1-1,1.4-1,2.4,0c6.8,6.9,13.7,13.7,20.5,20.6c0.6,0.6,1.1,1.2,2,0.2
	c3.9-4,7.8-7.9,11.7-11.8c0.7-0.7,0.9-1.1,0.1-1.9C87.9,28.9,76.3,17.3,64.8,5.8c-0.3-0.3-0.5-0.5-0.9-0.8c-0.4,0.3-0.8,0.7-1.1,1
	C51.4,17.4,40,28.9,28.5,40.2c-0.9,0.9-0.8,1.4,0,2.2C32.4,46.2,36.2,50,40,53.9z M96.6,64.9c4,4,8,8,12,12c0.7,0.7,1.1,0.6,1.8,0
	c3.9-4,7.9-7.9,11.9-11.9c0.3-0.3,0.5-0.5,0.8-0.8c-0.3-0.3-0.5-0.5-0.7-0.7c-4-4.1-8.1-8.1-12.1-12.2c-0.6-0.6-1-0.5-1.5,0
	c-4,4.1-8.1,8.1-12.2,12.2C96,64,96.1,64.3,96.6,64.9z M62.9,51.5c-3.9,3.9-7.8,7.9-11.8,11.8c-0.7,0.6-0.8,1-0.1,1.7
	c4,3.9,8,7.9,11.9,11.9c0.6,0.6,1.1,0.8,1.8,0.1c4-4,8-8,12-12c0.2-0.2,0.4-0.4,0.7-0.7c-0.3-0.3-0.5-0.6-0.8-0.9
	c-4-4-7.9-7.9-11.9-11.9C64,50.6,63.6,50.8,62.9,51.5z M31,63.2c-4-3.9-7.9-7.9-11.9-11.9c-0.2-0.2-0.5-0.5-0.8-0.7
	c-0.3,0.3-0.5,0.4-0.7,0.7c-4,4-8.1,8.1-12.1,12.1c-0.6,0.6-0.5,0.9,0,1.5c4,4,8,8,12,12c0.7,0.7,1.1,0.7,1.8,0
	c3.9-4,7.9-8,11.9-11.9C31.8,64.3,31.7,63.9,31,63.2z"/>
</svg>
