<?xml version="1.0" encoding="utf-8"?>
<!-- Generator: Adobe Illustrator 21.0.0, SVG Export Plug-In . SVG Version: 6.00 Build 0)  -->
<svg version="1.1" id="Layer_1" xmlns="http://www.w3.org/2000/svg" xmlns:xlink="http://www.w3.org/1999/xlink" x="0px" y="0px"
	 viewBox="0 0 128 128" style="enable-background:new 0 0 128 128;" xml:space="preserve">
<style type="text/css">
	.st0{fill:#DF040B;}
</style>
<g>
	<path class="st0" d="M115.8,28.7c0.1,3.5-0.2,7-0.3,10.5c-0.1,4.1-0.3,8.3-0.5,12.4c-0.3,5.1-0.6,10.2-1.2,15.3
		c-0.8,7-1.9,14-4.1,20.8c-2,6.3-5.3,11.8-10.2,16.2c-3.2,2.8-6.8,5-10.5,7c-5.3,2.9-10.7,5.8-15.8,9.1c-1.6,1-3.2,2.2-4.7,3.2
		c-2.6,1.8-5,1.9-7.6,0c-7.1-5-14.7-9.1-22.3-13.3c-3.7-2.1-7.2-4.4-10.2-7.4c-4.2-4.2-7-9.3-8.8-15C18,82.5,17,77.3,16.2,72
		c-0.6-4.1-1-8.2-1.4-12.3c-0.3-3.2-0.4-6.5-0.6-9.8C14,45.1,13.9,40,13.7,35c-0.1-3.3-0.1-6.6-0.2-9.9c-0.1-3.8,2.4-6.4,6.6-6.4
		c2.8,0,5.6,0.1,8.4-0.2c5.8-0.5,11.6-1.6,17.1-3.8c5.6-2.2,10.6-5.1,15.2-8.9C63,4,66.1,4,68.3,5.8c5,4.1,10.6,7.3,16.7,9.5
		c4.2,1.5,8.5,2.4,12.9,2.9c3.7,0.4,7.4,0.5,11.1,0.5c3.4,0,5.8,1.7,6.6,4.6c0.2,0.7,0.2,1.4,0.2,2.1
		C115.8,26.5,115.8,27.6,115.8,28.7z M25.6,32.3c0.3,2.4,0.1,5.1,0.3,7.8c0.2,4,0.3,7.9,0.6,11.9c0.3,5.5,0.7,11,1.4,16.5
		c0.6,5.1,1.5,10.1,3,15c1.4,4.6,3.6,8.6,7.3,11.8c2.4,2,5.1,3.6,7.8,5.1c6.1,3.3,12.3,6.6,18.1,10.5c0.5,0.3,0.8,0.2,1.3-0.1
		c2.2-1.4,4.4-2.9,6.7-4.2c4.4-2.5,8.9-5,13.4-7.5c3-1.7,5.9-3.7,8.2-6.4c2.6-3.1,4.1-6.7,5.2-10.5c2.2-8,3.1-16.1,3.7-24.3
		c0.3-3.6,0.5-7.2,0.7-10.8c0.2-5.2,0.4-10.3,0.5-15.5c0-0.6-0.1-0.9-0.8-0.9c-3.5-0.1-7-0.5-10.4-1.1c-9.8-1.8-18.8-5.2-27-11
		c-0.6-0.5-1.1-0.4-1.7,0c-4.3,3.1-9,5.5-14,7.4c-7.3,2.8-14.9,4.3-22.8,4.7C25.6,30.8,25.6,30.7,25.6,32.3z"/>
</g>
</svg>
